<?xml version="1.0" standalone="no"?>
<!DOCTYPE svg PUBLIC "-//W3C//DTD SVG 20010904//EN"
 "http://www.w3.org/TR/2001/REC-SVG-20010904/DTD/svg10.dtd">
<svg version="1.0" xmlns="http://www.w3.org/2000/svg"
 width="1000.000000pt" height="1000.000000pt" viewBox="0 0 1000.000000 1000.000000"
 preserveAspectRatio="xMidYMid meet">

<g transform="translate(0.000000,1000.000000) scale(0.100000,-0.100000)"
fill="#ffffff" stroke="none">
<path d="M1400 8015 c0 -696 -3 -1265 -8 -1265 -4 0 -183 176 -397 390 -214
215 -393 390 -397 390 -5 0 -8 -588 -8 -1307 l0 -1307 405 -406 405 -406 0
-1762 0 -1762 1040 0 1040 0 0 722 0 723 723 -723 722 -722 1315 0 1315 0
-2038 2038 -2037 2037 0 2313 0 2312 -1040 0 -1040 0 0 -1265z"/>
<path d="M6370 7963 l0 -1318 -793 793 c-436 436 -796 790 -800 786 -4 -4 -7
-563 -7 -1243 l0 -1236 2250 -2250 2250 -2250 0 1250 0 1250 -438 440 -438
440 1 2328 1 2327 -1013 0 -1013 0 0 -1317z"/>
</g>

</svg>
