<svg width="216.04000244140624px" height="117.239990234375px" xmlns="http://www.w3.org/2000/svg" viewBox="141.97999877929686 16.3800048828125 216.04000244140624 117.239990234375" style="background: rgba(5, 17, 3, 0);" preserveAspectRatio="xMidYMid">
	<defs>
		<linearGradient id="editing-glowing-gradient" x1="0.8146601955249185" x2="0.18533980447508147" y1="0.8885729807284856" y2="0.11142701927151444">
		<stop offset="0" stop-color="#67ff43"></stop>
		<stop offset="1" stop-color="#90ffff"></stop>
		</linearGradient>
		<filter id="editing-glowing" x="-100%" y="-100%" width="300%" height="300%">
		<feGaussianBlur in="SourceGraphic" result="blur" stdDeviation="10"></feGaussianBlur>
		<feMerge>
			<feMergeNode in="blur"></feMergeNode>
			<feMergeNode in="SourceGraphic"></feMergeNode>
		</feMerge>
		</filter>
	</defs>
	<g filter="url(#editing-glowing)">
	<g transform="translate(176.84499883651733, 102.7750015258789)">
	<path d="M5.06 0L5.06-43.90L11.14-43.90L11.14-5.31L33.66-5.31L33.66 0L5.06 0ZM53.38 0.77L53.38 0.77Q45.63 0.77 41.73-3.55L41.73-3.55L41.73-3.55Q37.82-7.87 37.82-16.83L37.82-16.83L37.82-16.83Q37.82-25.79 41.73-30.11L41.73-30.11L41.73-30.11Q45.63-34.43 53.38-34.43L53.38-34.43L53.38-34.43Q61.12-34.43 65.02-30.11L65.02-30.11L65.02-30.11Q68.93-25.79 68.93-16.83L68.93-16.83L68.93-16.83Q68.93-7.87 65.02-3.55L65.02-3.55L65.02-3.55Q61.12 0.77 53.38 0.77L53.38 0.77ZM53.38-3.90L53.38-3.90Q58.50-3.90 60.80-6.88L60.80-6.88L60.80-6.88Q63.10-9.86 63.10-16.58L63.10-16.58L63.10-17.09L63.10-17.09Q63.10-23.81 60.80-26.78L60.80-26.78L60.80-26.78Q58.50-29.76 53.38-29.76L53.38-29.76L53.38-29.76Q48.26-29.76 45.95-26.78L45.95-26.78L45.95-26.78Q43.65-23.81 43.65-17.09L43.65-17.09L43.65-16.58L43.65-16.58Q43.65-9.86 45.95-6.88L45.95-6.88L45.95-6.88Q48.26-3.90 53.38-3.90L53.38-3.90ZM75.46 0L75.46-33.66L79.74-33.66L80.38-29.12L80.83-29.12L80.83-29.12Q84.54-34.43 92.16-34.43L92.16-34.43L92.16-34.43Q97.22-34.43 99.94-31.71L99.94-31.71L99.94-31.71Q102.66-28.99 102.66-22.98L102.66-22.98L102.66 0L97.02 0L97.02-22.59L97.02-22.59Q97.02-26.62 95.23-28.19L95.23-28.19L95.23-28.19Q93.44-29.76 90.05-29.76L90.05-29.76L90.05-29.76Q87.62-29.76 85.57-28.58L85.57-28.58L85.57-28.58Q83.52-27.39 82.30-25.15L82.30-25.15L82.30-25.15Q81.09-22.91 81.09-19.90L81.09-19.90L81.09 0L75.46 0ZM117.06 11.65L117.06 11.65Q113.34 11.65 110.62 9.76L110.62 9.76L110.62 9.76Q107.90 7.87 107.90 3.52L107.90 3.52L107.90 3.52Q107.90-1.73 113.34-3.65L113.34-3.65L113.34-3.65Q111.81-4.48 110.82-5.79L110.82-5.79L110.82-5.79Q109.82-7.10 109.82-8.83L109.82-8.83L109.82-8.83Q109.82-11.33 111.58-12.61L111.58-12.61L111.58-12.61Q113.34-13.89 115.46-14.40L115.46-14.40L115.46-14.40Q113.34-15.94 112.13-18.18L112.13-18.18L112.13-18.18Q110.91-20.42 110.91-23.10L110.91-23.10L110.91-23.10Q110.91-28.48 114.56-31.46L114.56-31.46L114.56-31.46Q118.21-34.43 124.54-34.43L124.54-34.43L124.54-34.43Q128.06-34.43 130.94-33.28L130.94-33.28L130.94-33.28Q135.10-35.26 135.81-39.10L135.81-39.10L141.18-39.10L141.18-39.10Q141.18-36.10 139.42-33.92L139.42-33.92L139.42-33.92Q137.66-31.74 134.66-31.04L134.66-31.04L134.66-31.04Q138.24-27.84 138.24-23.10L138.24-23.10L138.24-23.10Q138.24-17.73 134.56-14.75L134.56-14.75L134.56-14.75Q130.88-11.78 124.54-11.78L124.54-11.78L119.17-11.78L119.17-11.78Q117.44-11.78 116.51-11.01L116.51-11.01L116.51-11.01Q115.58-10.24 115.58-9.02L115.58-9.02L115.58-9.02Q115.58-7.81 116.51-7.04L116.51-7.04L116.51-7.04Q117.44-6.27 119.17-6.27L119.17-6.27L132.67-6.27L132.67-6.27Q136.64-6.27 138.94-3.87L138.94-3.87L138.94-3.87Q141.25-1.47 141.25 1.92L141.25 1.92L141.25 1.92Q141.25 4.35 140.16 6.59L140.16 6.59L140.16 6.59Q139.07 8.83 136.67 10.24L136.67 10.24L136.67 10.24Q134.27 11.65 130.62 11.65L130.62 11.65L117.06 11.65ZM124.61-16.13L124.61-16.13Q128.58-16.13 130.62-17.95L130.62-17.95L130.62-17.95Q132.67-19.78 132.67-23.10L132.67-23.10L132.67-23.10Q132.67-26.43 130.62-28.26L130.62-28.26L130.62-28.26Q128.58-30.08 124.61-30.08L124.61-30.08L124.61-30.08Q120.64-30.08 118.59-28.26L118.59-28.26L118.59-28.26Q116.54-26.43 116.54-23.10L116.54-23.10L116.54-23.10Q116.54-19.78 118.59-17.95L118.59-17.95L118.59-17.95Q120.64-16.13 124.61-16.13L124.61-16.13ZM117.57 7.10L130.75 7.10L130.75 7.10Q132.86 7.10 134.27 5.95L134.27 5.95L134.27 5.95Q135.68 4.80 135.68 2.88L135.68 2.88L135.68 2.88Q135.68 0.96 134.56-0.16L134.56-0.16L134.56-0.16Q133.44-1.28 131.58-1.28L131.58-1.28L117.57-1.28L117.57-1.28Q115.71-1.28 114.62-0.16L114.62-0.16L114.62-0.16Q113.54 0.96 113.54 2.88L113.54 2.88L113.54 2.88Q113.54 4.80 114.62 5.95L114.62 5.95L114.62 5.95Q115.71 7.10 117.57 7.10L117.57 7.10Z" fill="url(#editing-glowing-gradient)"></path>
	</g>
	</g>
	<style>text {
  font-size: 64px;
  font-family: Arial Black;
  dominant-baseline: central;
  text-anchor: middle;
}</style></svg>