<?xml version="1.0" standalone="no"?>
<!DOCTYPE svg PUBLIC "-//W3C//DTD SVG 20010904//EN"
 "http://www.w3.org/TR/2001/REC-SVG-20010904/DTD/svg10.dtd">
<svg version="1.0" xmlns="http://www.w3.org/2000/svg"
 width="866.000000pt" height="452.000000pt" viewBox="0 0 866.000000 452.000000"
 preserveAspectRatio="xMidYMid meet">

<g transform="translate(0.000000,452.000000) scale(0.100000,-0.100000)"
fill="#982056" stroke="none">
<path d="M2655 4406 c-5 -2 -71 -9 -145 -15 -168 -15 -226 -31 -267 -73 -61
-62 -63 -81 -63 -497 -1 -737 -23 -877 -164 -1015 -78 -77 -185 -123 -330
-141 l-56 -7 -2 833 -3 834 -290 0 -290 0 -5 -1420 -5 -1420 -21 -46 c-18 -39
-31 -51 -80 -75 -107 -52 -264 -34 -342 39 -58 54 -57 39 -60 580 l-3 497
-209 0 -210 0 0 -1215 0 -1215 204 0 204 0 6 31 c3 17 6 202 6 410 0 436 -13
394 112 359 87 -24 222 -26 318 -6 64 14 65 14 104 -12 50 -35 100 -101 125
-166 42 -113 53 -200 53 -413 l-1 -203 203 0 203 0 6 83 c29 371 -35 677 -184
878 l-51 69 50 55 c28 30 69 88 91 127 l41 73 0 -102 0 -103 204 0 203 0 7
113 c22 346 131 514 381 582 38 11 118 19 218 22 l157 6 0 203 0 204 320 0
320 0 6 -25 c9 -35 -12 -257 -31 -330 -36 -137 -110 -248 -202 -302 -99 -58
-175 -75 -358 -82 l-170 -6 -3 -199 c-2 -153 1 -201 10 -208 18 -11 204 -10
308 2 127 14 254 50 358 100 l92 46 0 -373 0 -373 -747 -2 -748 -3 0 -205 0
-205 865 0 865 0 47 27 c25 15 60 47 77 70 55 74 61 114 61 395 l0 253 79 0
c157 0 336 47 476 124 44 25 100 69 151 121 67 67 90 99 133 185 29 58 55 107
57 110 3 2 4 -289 2 -648 l-3 -652 208 0 207 0 0 358 0 357 148 1 c139 1 271
18 362 46 123 37 254 113 346 200 l51 48 48 -61 c180 -229 464 -329 855 -300
85 6 453 13 818 16 656 5 664 6 710 27 66 32 116 86 130 141 9 34 10 238 5
787 l-6 740 -151 0 c-83 0 -167 -3 -186 -6 l-35 -6 3 -654 2 -654 -335 0 -335
0 35 70 c19 38 46 108 60 154 28 100 51 318 41 399 l-7 57 -185 0 -184 0 0
-123 c0 -134 -20 -240 -62 -325 -48 -95 -154 -170 -294 -207 -85 -23 -268 -31
-335 -15 -233 54 -348 231 -366 562 l-6 107 529 3 c587 3 566 1 636 71 19 19
46 57 59 83 l24 49 3 1008 2 1007 -210 -2 -210 -3 -4 -140 c-10 -357 -112
-535 -349 -610 -114 -36 -126 -34 -171 25 -97 127 -255 229 -411 266 -80 18
-267 23 -393 10 l-83 -8 1 323 c1 296 0 323 -16 332 -21 12 -372 1 -388 -12
-6 -5 -34 -14 -62 -19 -121 -26 -262 -94 -366 -176 -114 -91 -228 -260 -274
-409 -14 -44 -21 -56 -33 -52 -48 19 -167 46 -246 56 -92 12 -298 6 -385 -10
-25 -5 -48 -7 -52 -5 -5 3 -8 174 -8 380 l0 374 -235 0 -234 0 -3 -65 -3 -64
-66 42 c-85 55 -210 105 -324 128 -82 17 -326 34 -350 25z m310 -128 c159 -31
290 -92 408 -190 l28 -23 -3 -164 -3 -165 -37 61 c-53 86 -161 184 -250 227
-101 49 -197 66 -373 66 -158 0 -185 -7 -224 -56 -20 -26 -21 -38 -21 -335 l0
-307 -62 -7 c-35 -4 -81 -5 -103 -3 l-40 3 -3 375 c-3 513 -7 502 192 522 286
28 330 28 491 -4z m2335 -297 l0 -109 -34 -6 c-71 -14 -170 -73 -239 -145 -77
-79 -128 -175 -153 -287 l-16 -73 -59 49 c-33 28 -73 57 -90 65 -36 19 -36 31
0 123 97 244 256 390 511 468 41 13 76 23 78 23 1 1 2 -48 2 -108z m-2345 -15
c221 -60 348 -214 417 -505 17 -72 21 -131 25 -365 3 -153 2 -312 -2 -352 l-7
-74 -394 0 -394 0 0 654 0 655 23 5 c46 10 273 -2 332 -18z m4475 -962 c0
-642 -3 -928 -11 -960 -7 -25 -27 -62 -49 -86 l-37 -42 -101 -4 -102 -4 0 105
c0 96 2 106 20 112 10 3 31 20 45 36 l25 31 0 410 0 410 -29 29 c-43 42 -102
41 -184 -5 -53 -30 -246 -102 -252 -94 -7 11 -66 190 -64 192 2 2 28 9 57 15
92 19 192 72 265 141 121 113 181 272 194 517 l6 113 109 0 108 0 0 -916z
m-2130 16 l0 -740 203 2 202 3 0 397 c0 218 3 399 6 402 18 18 181 38 274 33
220 -10 325 -100 386 -332 17 -65 22 -119 26 -293 l5 -212 202 2 201 3 3 130
c3 116 -8 289 -24 385 l-6 36 82 23 c45 13 120 43 167 67 55 27 86 38 89 30 2
-6 3 -173 2 -371 l-3 -360 -727 -3 -728 -2 0 -210 0 -210 97 0 96 0 -6 -95
c-23 -354 -187 -493 -579 -495 l-118 0 0 465 0 465 -211 0 -211 0 3 -112 4
-113 -196 -3 -196 -2 -6 -148 c-9 -268 -70 -384 -230 -440 -64 -23 -212 -46
-228 -36 -5 3 -9 393 -9 908 l0 904 68 13 c39 8 131 14 222 14 167 0 218 -10
308 -62 147 -86 226 -324 221 -668 -1 -79 2 -110 11 -113 7 -3 113 -1 236 3
l224 7 0 169 c0 309 -53 538 -170 732 l-40 66 15 85 c26 150 72 245 155 319
49 44 140 97 167 97 11 0 13 -138 13 -740z m1279 80 c21 -35 67 -167 61 -173
-3 -2 -38 -7 -77 -10 l-73 -6 0 110 0 109 35 0 c29 0 39 -6 54 -30z m-4051
-501 l32 -29 420 0 420 0 0 -105 0 -105 -478 0 c-515 0 -554 3 -599 52 -42 46
-39 63 21 131 31 34 75 96 98 138 l43 76 5 -64 c4 -57 9 -68 38 -94z m-313
-226 c24 -45 89 -87 158 -104 l51 -12 -101 -23 c-332 -74 -550 -270 -660 -594
l-32 -95 -1 347 0 347 58 6 c98 11 174 25 247 47 75 22 198 76 230 101 27 22
28 22 50 -20z m-1783 -460 l3 -468 27 -47 27 -48 -35 0 -34 0 0 -600 0 -600
-105 0 -105 0 0 838 c0 460 3 962 7 1115 l6 277 103 0 103 0 3 -467z m8101
-70 c4 -905 4 -884 -16 -921 -13 -23 -35 -41 -70 -57 l-52 -24 -692 -7 -693
-7 0 110 0 110 63 23 c96 34 161 75 217 137 93 101 129 200 139 378 l6 120 94
3 94 3 -6 -118 c-7 -136 -37 -253 -92 -363 -41 -81 -45 -134 -14 -174 l20 -26
377 0 c207 0 382 4 388 8 5 4 18 18 27 32 16 22 17 79 17 647 l0 622 58 4 c31
2 74 4 95 5 l37 2 3 -507z m-7003 29 c0 -432 -1 -442 -68 -561 -19 -35 -58
-88 -87 -119 l-52 -56 -44 35 c-59 48 -189 129 -206 129 -18 0 -16 7 7 37 10
13 28 49 40 79 19 52 20 77 20 449 l0 395 195 0 195 0 0 -388z m1140 189 l0
-108 -127 -6 c-71 -3 -155 -12 -188 -21 -158 -43 -284 -141 -353 -274 -50 -95
-68 -165 -83 -309 l-12 -113 -103 0 -104 0 0 28 c0 15 7 72 15 127 68 448 288
685 705 759 89 16 136 21 208 24 l42 2 0 -109z m2380 -457 l0 -436 30 -30 31
-30 197 5 c136 3 214 10 252 21 144 41 251 127 319 255 l38 73 18 -73 c10 -41
29 -100 41 -132 l23 -59 -32 -39 c-41 -50 -136 -123 -208 -159 -141 -72 -290
-102 -503 -101 l-148 0 -29 -29 -29 -28 0 -331 0 -331 -105 0 -105 0 0 930 0
930 105 0 105 0 0 -436z m-4161 -640 c92 -19 -46 -42 -147 -26 -107 18 -100
32 15 32 55 0 115 -3 132 -6z"/>
</g>
</svg>
