<?xml version="1.0" encoding="UTF-8" standalone="no"?>
<svg
   version="1.0"
   width="866.000000pt"
   height="452.000000pt"
   viewBox="0 0 866.000000 452.000000"
   preserveAspectRatio="none"
   id="svg1"
   sodipodi:docname="name-logo.svg"
   inkscape:version="1.3.2 (091e20ef0f, 2023-11-25, custom)"
   inkscape:export-filename="name-logo.svg"
   inkscape:export-xdpi="96"
   inkscape:export-ydpi="96"
   xmlns:inkscape="http://www.inkscape.org/namespaces/inkscape"
   xmlns:sodipodi="http://sodipodi.sourceforge.net/DTD/sodipodi-0.dtd"
   xmlns="http://www.w3.org/2000/svg"
   xmlns:svg="http://www.w3.org/2000/svg">
  <defs
     id="defs1">
    <inkscape:path-effect
       effect="fillet_chamfer"
       id="path-effect1"
       is_visible="true"
       lpeversion="1"
       nodesatellites_param="F,0,0,1,0,0,0,1 @ F,0,0,1,0,0,0,1 @ F,0,0,1,0,0,0,1 @ F,0,0,1,0,0,0,1 @ F,0,0,1,0,0,0,1 @ F,0,0,1,0,0,0,1 @ F,0,0,1,0,0,0,1 @ F,0,0,1,0,0,0,1 @ F,0,0,1,0,0,0,1 @ F,0,0,1,0,0,0,1 @ F,0,0,1,0,0,0,1 @ F,0,0,1,0,0,0,1 @ F,0,0,1,0,0,0,1 @ F,0,0,1,0,0,0,1 @ F,0,0,1,0,0,0,1 @ F,0,0,1,0,0,0,1 @ F,0,0,1,0,0,0,1 @ F,0,0,1,0,0,0,1 @ F,0,0,1,0,0,0,1 @ F,0,0,1,0,0,0,1 @ F,0,0,1,0,0,0,1 @ F,0,0,1,0,0,0,1 @ F,0,0,1,0,0,0,1 @ F,0,0,1,0,0,0,1 @ F,0,0,1,0,0,0,1 @ F,0,0,1,0,0,0,1 @ F,0,0,1,0,0,0,1 @ F,0,0,1,0,0,0,1 @ F,0,0,1,0,0,0,1 @ F,0,0,1,0,0,0,1 @ F,0,0,1,0,0,0,1 @ F,0,0,1,0,0,0,1 @ F,0,0,1,0,0,0,1 @ F,0,0,1,0,0,0,1 @ F,0,0,1,0,0,0,1 @ F,0,0,1,0,0,0,1 @ F,0,0,1,0,0,0,1 @ F,0,0,1,0,0,0,1 @ F,0,0,1,0,0,0,1 @ F,0,0,1,0,0,0,1 @ F,0,0,1,0,0,0,1 @ F,0,0,1,0,0,0,1 @ F,0,0,1,0,0,0,1 @ F,0,0,1,0,0,0,1 @ F,0,0,1,0,0,0,1 @ F,0,0,1,0,0,0,1 @ F,0,0,1,0,0,0,1 @ F,0,0,1,0,0,0,1 @ F,0,0,1,0,0,0,1 @ F,0,0,1,0,0,0,1 @ F,0,0,1,0,0,0,1 @ F,0,0,1,0,0,0,1 @ F,0,0,1,0,0,0,1 @ F,0,0,1,0,0,0,1 @ F,0,0,1,0,0,0,1 @ F,0,0,1,0,0,0,1 @ F,0,0,1,0,0,0,1 @ F,0,0,1,0,0,0,1 @ F,0,0,1,0,0,0,1 @ F,0,0,1,0,0,0,1 @ F,0,0,1,0,0,0,1 @ F,0,0,1,0,0,0,1 @ F,0,0,1,0,0,0,1 @ F,0,0,1,0,0,0,1 @ F,0,0,1,0,0,0,1 @ F,0,0,1,0,0,0,1 @ F,0,0,1,0,0,0,1 @ F,0,0,1,0,0,0,1 @ F,0,0,1,0,0,0,1 @ F,0,0,1,0,0,0,1 @ F,0,0,1,0,0,0,1 @ F,0,0,1,0,0,0,1 @ F,0,0,1,0,0,0,1 @ F,0,0,1,0,0,0,1 @ F,0,0,1,0,0,0,1 @ F,0,0,1,0,0,0,1 @ F,0,0,1,0,0,0,1 @ F,0,0,1,0,0,0,1 @ F,0,0,1,0,0,0,1 @ F,0,0,1,0,0,0,1 @ F,0,0,1,0,0,0,1 @ F,0,0,1,0,0,0,1 @ F,0,0,1,0,0,0,1 @ F,0,0,1,0,0,0,1 @ F,0,0,1,0,0,0,1 @ F,0,0,1,0,0,0,1 @ F,0,0,1,0,0,0,1 @ F,0,0,1,0,0,0,1 @ F,0,0,1,0,0,0,1 @ F,0,0,1,0,0,0,1 @ F,0,0,1,0,0,0,1 @ F,0,0,1,0,0,0,1 @ F,0,0,1,0,0,0,1 @ F,0,0,1,0,0,0,1 @ F,0,0,1,0,0,0,1 @ F,0,0,1,0,0,0,1 @ F,0,0,1,0,0,0,1 @ F,0,0,1,0,0,0,1 @ F,0,0,1,0,0,0,1 @ F,0,0,1,0,0,0,1 @ F,0,0,1,0,0,0,1 @ F,0,0,1,0,0,0,1 @ F,0,0,1,0,0,0,1 @ F,0,0,1,0,0,0,1 @ F,0,0,1,0,0,0,1 @ F,0,0,1,0,0,0,1 @ F,0,0,1,0,0,0,1 @ F,0,0,1,0,0,0,1 @ F,0,0,1,0,0,0,1 @ F,0,0,1,0,0,0,1 @ F,0,0,1,0,0,0,1 @ F,0,0,1,0,0,0,1 @ F,0,0,1,0,0,0,1 @ F,0,0,1,0,0,0,1 @ F,0,0,1,0,0,0,1 @ F,0,0,1,0,0,0,1 @ F,0,0,1,0,0,0,1 @ F,0,0,1,0,0,0,1 @ F,0,0,1,0,0,0,1 @ F,0,0,1,0,0,0,1 @ F,0,0,1,0,0,0,1 @ F,0,0,1,0,0,0,1 @ F,0,0,1,0,0,0,1 @ F,0,0,1,0,0,0,1 @ F,0,0,1,0,0,0,1 @ F,0,0,1,0,0,0,1 @ F,0,0,1,0,0,0,1 @ F,0,0,1,0,0,0,1 @ F,0,0,1,0,0,0,1 @ F,0,0,1,0,0,0,1 @ F,0,0,1,0,0,0,1 @ F,0,0,1,0,0,0,1 @ F,0,0,1,0,0,0,1 @ F,0,0,1,0,0,0,1 @ F,0,0,1,0,0,0,1 @ F,0,0,1,0,0,0,1 @ F,0,0,1,0,0,0,1 @ F,0,0,1,0,0,0,1 @ F,0,0,1,0,0,0,1 @ F,0,0,1,0,0,0,1 @ F,0,0,1,0,0,0,1 @ F,0,0,1,0,0,0,1 @ F,0,0,1,0,0,0,1 @ F,0,0,1,0,0,0,1 @ F,0,0,1,0,0,0,1 | F,0,0,1,0,0,0,1 @ F,0,0,1,0,0,0,1 @ F,0,0,1,0,0,0,1 @ F,0,0,1,0,0,0,1 @ F,0,0,1,0,0,0,1 @ F,0,0,1,0,0,0,1 @ F,0,0,1,0,0,0,1 @ F,0,0,1,0,0,0,1 @ F,0,0,1,0,0,0,1 @ F,0,0,1,0,0,0,1 @ F,0,0,1,0,0,0,1 @ F,0,0,1,0,0,0,1 @ F,0,0,1,0,0,0,1 @ F,0,0,1,0,0,0,1 @ F,0,0,1,0,0,0,1 @ F,0,0,1,0,0,0,1 | F,0,0,1,0,0,0,1 @ F,0,0,1,0,0,0,1 @ F,0,0,1,0,0,0,1 @ F,0,0,1,0,0,0,1 @ F,0,0,1,0,0,0,1 @ F,0,0,1,0,0,0,1 @ F,0,0,1,0,0,0,1 @ F,0,0,1,0,0,0,1 @ F,0,0,1,0,0,0,1 @ F,0,0,1,0,0,0,1 @ F,0,0,1,0,0,0,1 | F,0,0,1,0,0,0,1 @ F,0,0,1,0,0,0,1 @ F,0,0,1,0,0,0,1 @ F,0,0,1,0,0,0,1 @ F,0,0,1,0,0,0,1 @ F,0,0,1,0,0,0,1 @ F,0,0,1,0,0,0,1 @ F,0,0,1,0,0,0,1 @ F,0,0,1,0,0,0,1 @ F,0,0,1,0,0,0,1 | F,0,0,1,0,0,0,1 @ F,0,0,1,0,0,0,1 @ F,0,0,1,0,0,0,1 @ F,0,0,1,0,0,0,1 @ F,0,0,1,0,0,0,1 @ F,0,0,1,0,0,0,1 @ F,0,0,1,0,0,0,1 @ F,0,0,1,0,0,0,1 @ F,0,0,1,0,0,0,1 @ F,0,0,1,0,0,0,1 @ F,0,0,1,0,0,0,1 @ F,0,0,1,0,0,0,1 @ F,0,0,1,0,0,0,1 @ F,0,0,1,0,0,0,1 @ F,0,0,1,0,0,0,1 @ F,0,0,1,0,0,0,1 @ F,0,0,1,0,0,0,1 @ F,0,0,1,0,0,0,1 @ F,0,0,1,0,0,0,1 @ F,0,0,1,0,0,0,1 @ F,0,0,1,0,0,0,1 @ F,0,0,1,0,0,0,1 | F,0,0,1,0,0,0,1 @ F,0,0,1,0,0,0,1 @ F,0,0,1,0,0,0,1 @ F,0,0,1,0,0,0,1 @ F,0,0,1,0,0,0,1 @ F,0,0,1,0,0,0,1 @ F,0,0,1,0,0,0,1 @ F,0,0,1,0,0,0,1 @ F,0,0,1,0,0,0,1 @ F,0,0,1,0,0,0,1 @ F,0,0,1,0,0,0,1 @ F,0,0,1,0,0,0,1 @ F,0,0,1,0,0,0,1 @ F,0,0,1,0,0,0,1 @ F,0,0,1,0,0,0,1 @ F,0,0,1,0,0,0,1 @ F,0,0,1,0,0,0,1 @ F,0,0,1,0,0,0,1 @ F,0,0,1,0,0,0,1 @ F,0,0,1,0,0,0,1 @ F,0,0,1,0,0,0,1 @ F,0,0,1,0,0,0,1 @ F,0,0,1,0,0,0,1 @ F,0,0,1,0,0,0,1 @ F,0,0,1,0,0,0,1 @ F,0,0,1,0,0,0,1 @ F,0,0,1,0,0,0,1 @ F,0,0,1,0,0,0,1 @ F,0,0,1,0,0,0,1 @ F,0,0,1,0,0,0,1 @ F,0,0,1,0,0,0,1 @ F,0,0,1,0,0,0,1 @ F,0,0,1,0,0,0,1 @ F,0,0,1,0,0,0,1 @ F,0,0,1,0,0,0,1 @ F,0,0,1,0,0,0,1 @ F,0,0,1,0,0,0,1 @ F,0,0,1,0,0,0,1 @ F,0,0,1,0,0,0,1 @ F,0,0,1,0,0,0,1 @ F,0,0,1,0,0,0,1 @ F,0,0,1,0,0,0,1 @ F,0,0,1,0,0,0,1 @ F,0,0,1,0,0,0,1 @ F,0,0,1,0,0,0,1 @ F,0,0,1,0,0,0,1 @ F,0,0,1,0,0,0,1 @ F,0,0,1,0,0,0,1 @ F,0,0,1,0,0,0,1 @ F,0,0,1,0,0,0,1 @ F,0,0,1,0,0,0,1 @ F,0,0,1,0,0,0,1 @ F,0,0,1,0,0,0,1 @ F,0,0,1,0,0,0,1 @ F,0,0,1,0,0,0,1 | F,0,0,1,0,0,0,1 @ F,0,0,1,0,0,0,1 @ F,0,0,1,0,0,0,1 @ F,0,0,1,0,0,0,1 @ F,0,0,1,0,27.094659,0,1 @ F,0,0,1,0,23.29735,0,1 @ F,0,0,1,0,0,0,1 | F,0,0,1,0,0,0,1 @ F,0,0,1,0,0,0,1 @ F,0,0,1,0,0,0,1 @ F,0,0,1,0,0,0,1 @ F,0,0,1,0,0,0,1 @ F,0,0,1,0,0,0,1 @ F,0,0,1,0,0,0,1 @ F,0,0,1,0,0,0,1 @ F,0,0,1,0,0,0,1 @ F,0,0,1,0,0,0,1 @ F,0,0,1,0,0,0,1 @ F,0,0,1,0,0,0,1 | F,0,0,1,0,0,0,1 @ F,0,0,1,0,0,0,1 @ F,0,0,1,0,0,0,1 @ F,0,0,1,0,0,0,1 @ F,0,0,1,0,0,0,1 @ F,0,0,1,0,0,0,1 @ F,0,0,1,0,0,0,1 @ F,0,0,1,0,0,0,1 @ F,0,0,1,0,0,0,1 @ F,0,0,1,0,0,0,1 @ F,0,0,1,0,0,0,1 | F,0,0,1,0,0,0,1 @ F,0,0,1,0,0,0,1 @ F,0,0,1,0,0,0,1 @ F,0,0,1,0,0,0,1 @ F,0,0,1,0,0,0,1 @ F,0,0,1,0,0,0,1 @ F,0,0,1,0,0,0,1 @ F,0,0,1,0,0,0,1 @ F,0,0,1,0,0,0,1 @ F,0,0,1,0,0,0,1 @ F,0,0,1,0,0,0,1 @ F,0,0,1,0,0,0,1 | F,0,0,1,0,0,0,1 @ F,0,0,1,0,0,0,1 @ F,0,0,1,0,0,0,1 @ F,0,0,1,0,0,0,1 @ F,0,0,1,0,0,0,1 @ F,0,0,1,0,0,0,1 @ F,0,0,1,0,0,0,1 @ F,0,0,1,0,0,0,1 @ F,0,0,1,0,0,0,1 @ F,0,0,1,0,0,0,1 @ F,0,0,1,0,0,0,1 @ F,0,0,1,0,0,0,1 @ F,0,0,1,0,0,0,1 @ F,0,0,1,0,0,0,1 @ F,0,0,1,0,0,0,1 @ F,0,0,1,0,0,0,1 @ F,0,0,1,0,0,0,1 @ F,0,0,1,0,0,0,1 @ F,0,0,1,0,0,0,1 @ F,0,0,1,0,0,0,1 @ F,0,0,1,0,0,0,1 @ F,0,0,1,0,0,0,1 @ F,0,0,1,0,0,0,1 @ F,0,0,1,0,0,0,1 @ F,0,0,1,0,0,0,1 @ F,0,0,1,0,0,0,1 | F,0,0,1,0,0,0,1 @ F,0,0,1,0,0,0,1 @ F,0,0,1,0,0,0,1 @ F,0,0,1,0,0,0,1 @ F,0,0,1,0,0,0,1 @ F,0,0,1,0,0,0,1 @ F,0,0,1,0,0,0,1 @ F,0,0,1,0,0,0,1 @ F,0,0,1,0,0,0,1 @ F,0,0,1,0,0,0,1 @ F,0,0,1,0,0,0,1 @ F,0,0,1,0,0,0,1 | F,0,0,1,0,0,0,1 @ F,0,0,1,0,0,0,1 @ F,0,0,1,0,0,0,1 @ F,0,0,1,0,0,0,1 @ F,0,0,1,0,0,0,1 @ F,0,0,1,0,0,0,1 @ F,0,0,1,0,0,0,1 @ F,0,0,1,0,0,0,1 @ F,0,0,1,0,0,0,1 @ F,0,0,1,0,0,0,1 @ F,0,0,1,0,0,0,1 @ F,0,0,1,0,0,0,1 @ F,0,0,1,0,0,0,1 @ F,0,0,1,0,0,0,1 | F,0,0,1,0,0,0,1 @ F,0,0,1,0,0,0,1 @ F,0,0,1,0,0,0,1 @ F,0,0,1,0,0,0,1 @ F,0,0,1,0,0,0,1 @ F,0,0,1,0,0,0,1 @ F,0,0,1,0,0,0,1 @ F,0,0,1,0,0,0,1 @ F,0,0,1,0,0,0,1 @ F,0,0,1,0,0,0,1 @ F,0,0,1,0,0,0,1 @ F,0,0,1,0,0,0,1 @ F,0,0,1,0,0,0,1 @ F,0,0,1,0,0,0,1 @ F,0,0,1,0,0,0,1 @ F,0,0,1,0,0,0,1 @ F,0,0,1,0,0,0,1 @ F,0,0,1,0,0,0,1 @ F,0,0,1,0,0,0,1 @ F,0,0,1,0,0,0,1 @ F,0,0,1,0,0,0,1 @ F,0,0,1,0,0,0,1 @ F,0,0,1,0,0,0,1 @ F,0,0,1,0,0,0,1 @ F,0,0,1,0,0,0,1"
       radius="0"
       unit="px"
       method="auto"
       mode="F"
       chamfer_steps="1"
       flexible="false"
       use_knot_distance="true"
       apply_no_radius="true"
       apply_with_radius="true"
       only_selected="false"
       hide_knots="false" />
  </defs>
  <sodipodi:namedview
     id="namedview1"
     pagecolor="#ffffff"
     bordercolor="#000000"
     borderopacity="0.25"
     inkscape:showpageshadow="2"
     inkscape:pageopacity="0.0"
     inkscape:pagecheckerboard="0"
     inkscape:deskcolor="#d1d1d1"
     inkscape:document-units="pt"
     inkscape:zoom="1.0929561"
     inkscape:cx="295.5288"
     inkscape:cy="315.65769"
     inkscape:window-width="1444"
     inkscape:window-height="2528"
     inkscape:window-x="1548"
     inkscape:window-y="0"
     inkscape:window-maximized="0"
     inkscape:current-layer="svg1" />
  <g
     transform="translate(0.000000,452.000000) scale(0.100000,-0.100000)"
     fill="#982056"
     stroke="none"
     id="g1">
    <path
       d="m 2461.1478,4408.1384 c -57.0751,0.1917 -182.2331,10.4659 -234.3075,-46.1503 C 2165.8403,4299.9881 2180,4237 2180,3821 c -1,-737 -23,-877 -164,-1015 -78,-77 -185,-123 -330,-141 l -56,-7 -2,833 -3,834 h -290 -290 l -5,-1420 -5,-1420 -21,-46 c -18,-39 -31,-51 -80,-75 -107,-52 -264,-34 -342,39 -58,54 -57,39 -60,580 l -3,497 H 320 110 V 1265 50 h 204 204 l 6,31 c 3,17 4.45907,202.00571 6,410 2.88926,389.99336 309.82541,488.86565 534,341 50,-35 100,-101 125,-166 42,-113 53,-200 53,-413 l -1,-203 h 203 203 l 6,83 c 29,371 -35,677 -184,878 l -51,69 50,55 c 28,30 69,88 91,127 l 41,73 v -102 -103 h 204 203 l 7,113 c 22,346 131,514 381,582 38,11 118,19 218,22 l 157,6 v 203 204 h 320 320 l 6,-25 c 9,-35 -12,-257 -31,-330 -36,-137 -110,-248 -202,-302 -99,-58 -175,-75 -358,-82 l -170,-6 -3,-199 c -2,-153 1,-201 10,-208 18,-11 204,-10 308,2 127,14 254,50 358,100 l 92,46 V 883 510 l -747,-2 -748,-3 V 300 95 h 865 865 l 47,27 c 25,15 60,47 77,70 55,74 61,114 61,395 v 253 h 79 c 157,0 336,47 476,124 44,25 100,69 151,121 67,67 90,99 133,185 29,58 55,107 57,110 3,2 4,-289 2,-648 l -3,-652 h 208 207 v 358 357 l 148,1 c 139,1 271,18 362,46 123,37 254,113 346,200 l 51,48 48,-61 c 180,-229 464,-329 855,-300 85,6 453,13 818,16 656,5 664,6 710,27 66,32 116,86 130,141 9,34 10,238 5,787 l -6,740 h -151 c -83,0 -167,-3 -186,-6 l -35,-6 3,-654 2,-654 h -335 -335 l 35,70 c 19,38 46,108 60,154 28,100 51,318 41,399 l -7,57 h -185 -184 v -123 c 0,-134 -20,-240 -62,-325 -48,-95 -154,-170 -294,-207 -85,-23 -268,-31 -335,-15 -233,54 -348,231 -366,562 l -6,107 529,3 c 587,3 566,1 636,71 19,19 46,57 59,83 l 24,49 3,1008 2,1007 -210,-2 -210,-3 -4,-140 c -10,-357 -112,-535 -349,-610 -114,-36 -126,-34 -171,25 -97,127 -255,229 -411,266 -80,18 -267,23 -393,10 l -83,-8 1,323 c 1,296 0,323 -16,332 -21,12 -372,1 -388,-12 -6,-5 -34,-14 -62,-19 -121,-26 -262,-94 -366,-176 -114,-91 -228,-260 -274,-409 -14,-44 -21,-56 -33,-52 -48,19 -167,46 -246,56 -92,12 -298,6 -385,-10 -25,-5 -48,-7 -52,-5 -5,3 -8,174 -8,380 v 374 h -235 -234 l -3,-65 -3,-64 -66,42 c -85,55 -210,105 -324,128 -82,17 -494.5542,27.2591 -543.8522,27.1384 z M 2965,4278 c 159,-31 290,-92 408,-190 l 28,-23 -3,-164 -3,-165 -37,61 c -53,86 -161,184 -250,227 -101,49 -197,66 -373,66 -158,0 -185,-7 -224,-56 -20,-26 -21,-38 -21,-335 v -307 l -62,-7 c -35,-4 -81,-5 -103,-3 l -40,3 -3.8728,381.9558 c -3,513 -53.6998,558.13 169.7386,549.1723 C 2737.6478,4310.1291 2804,4310 2965,4278 Z m 2335,-297 v -109 l -34,-6 c -71,-14 -170,-73 -239,-145 -77,-79 -128,-175 -153,-287 l -16,-73 -59,49 c -33,28 -73,57 -90,65 -36,19 -36,31 0,123 97,244 256,390 511,468 41,13 76,23 78,23 1,1 2,-48 2,-108 z m -2345,-15 c 221,-60 348,-214 417,-505 17,-72 21,-131 25,-365 3,-153 2,-312 -2,-352 l -7,-74 h -394 -394 v 654 655 l 23,5 c 46,10 273,-2 332,-18 z m 4475,-962 c 0,-642 -3,-928 -11,-960 -7,-25 -27,-62 -49,-86 l -37,-42 -101,-4 -102,-4 v 105 c 0,96 2,106 20,112 10,3 31,20 45,36 l 25,31 v 410 410 l -29,29 c -43,42 -102,41 -184,-5 -53,-30 -246,-102 -252,-94 -7,11 -66,190 -64,192 2,2 28,9 57,15 92,19 192,72 265,141 121,113 181,272 194,517 l 6,113 h 109 108 z m -2130,16 v -740 l 203,2 202,3 v 397 c 0,218 3,399 6,402 18,18 181,38 274,33 220,-10 325,-100 386,-332 17,-65 22,-119 26,-293 l 5,-212 202,2 201,3 3,130 c 3,116 -8,289 -24,385 l -6,36 82,23 c 45,13 120,43 167,67 55,27 86,38 89,30 2,-6 3,-173 2,-371 l -3,-360 -727,-3 -728,-2 v -210 -210 h 97 96 l -6,-95 c -23,-354 -187,-493 -579,-495 h -118 v 465 465 h -211 -211 l 3,-112 4,-113 -196,-3 -196,-2 -6,-148 c -9,-268 -70,-384 -230,-440 -64,-23 -212,-46 -228,-36 -5,3 -9,393 -9,908 v 904 l 68,13 c 39,8 131,14 222,14 167,0 218,-10 308,-62 147,-86 226,-324 221,-668 -1,-79 2,-110 11,-113 7,-3 113,-1 236,3 l 224,7 v 169 c 0,309 -53,538 -170,732 l -40,66 15,85 c 26,150 72,245 155,319 49,44 140,97 167,97 11,0 13,-138 13,-740 z m 1279,80 c 21,-35 67,-167 61,-173 -3,-2 -38,-7 -77,-10 l -125.6059,0.4631 -30.8141,61.2477 c -8.1034,16.1067 -17.5654,31.4932 -28.2833,45.9921 l -62.6512,84.7532 c -5.765,7.7987 -0.2501,18.8447 9.4478,18.9233 L 6525,3130 c 28.999,0.2351 39,-6 54,-30 z m -4051,-501 32,-29 h 420 420 v -105 -105 h -478 c -515,0 -554,3 -599,52 -42,46 -39,63 21,131 31,34 75,96 98,138 l 43,76 5,-64 c 4,-57 9,-68 38,-94 z m -313,-226 c 24,-45 89,-87 158,-104 l 51,-12 -101,-23 c -332,-74 -550,-270 -660,-594 l -32,-95 -1,347 v 347 l 58,6 c 98,11 174,25 247,47 75,22 198,76 230,101 27,22 28,22 50,-20 z M 432,1913 435,1445 429.81509,756.96893 427.33697,152.66209 315,150 H 210 v 838 c 0,460 -6.80909,962 -2.80909,1115 l 5.19752,277 H 326 l 108.67128,0.4327 z m 8101,-70 c 4,-905 4,-884 -16,-921 -13,-23 -35,-41 -70,-57 l -52,-24 -692,-7 -693,-7 v 110 110 l 63,23 c 96,34 161,75 217,137 93,101 129,200 139,378 l 6,120 94,3 94,3 -6,-118 c -7,-136 -37,-253 -92,-363 -41,-81 -45,-134 -14,-174 l 20,-26 h 377 c 207,0 382,4 388,8 5,4 18,18 27,32 16,22 17,79 17,647 v 622 l 58,4 c 31,2 74,4 95,5 l 37,2 z m -7003,29 c 0,-432 -1,-442 -68,-561 -19,-35 -58,-88 -87,-119 l -52,-56 -44,35 c -59,48 -189,129 -206,129 -18,0 -16,7 7,37 10,13 28,49 40,79 19,52 20,77 20,449 v 395 h 195 195 z m 1140,189 v -108 l -127,-6 c -71,-3 -155,-12 -188,-21 -158,-43 -284,-141 -353,-274 -50,-95 -68,-165 -83,-309 l -12,-113 h -103 -104 v 28 c 0,15 7,72 15,127 68,448 288,685 705,759 89,16 136,21 208,24 l 42,2 z m 2380,-457 v -436 l 30,-30 31,-30 197,5 c 136,3 214,10 252,21 144,41 251,127 319,255 l 38,73 18,-73 c 10,-41 29,-100 41,-132 l 23,-59 -32,-39 c -41,-50 -136,-123 -208,-159 -141,-72 -290,-102 -503,-101 h -148 l -29,-29 -29,-28 V 511 180 h -105 -105 v 930 930 h 105 105 z"
       id="path1"
       sodipodi:nodetypes="ccccccccccccccccccccccccsccccccccccccccccccccccccccccccccccccccccccccscsccsccccccccccccccccccsccccccscccccsccccccsccccccccccccccccccccccscccccccccccccccscscccccccsccccccccccscccccccccscscccccsccccccccsccccccsscccsscccccccsccccccccccccccccccccccccccsccscccccsccccssccccccscccccccscccccccccccccccccccccccccsccccccsccccccccccccccccsccscccccsccccsccscccscccccccccscccccccccccccccccccccccccccccccc" />
  </g>
</svg>
