<svg xmlns="http://www.w3.org/2000/svg" width="512" height="512" viewBox="0 0 512 512" version="1.1">
	<path d="M 233.449 39.956 C 195.891 43.356, 155.098 58.038, 118.122 81.463 C 103.704 90.598, 100.408 93.233, 101.399 94.836 C 102.577 96.742, 104.542 96.224, 113.742 91.580 C 133.120 81.801, 138.485 80.761, 142.813 85.945 L 145.545 89.217 155.022 84.163 C 191.195 64.876, 234.198 56.933, 278 61.447 C 316.939 65.461, 334.888 70.600, 358.634 84.537 C 408.768 113.962, 440.125 161.140, 451.121 223.690 C 454.027 240.223, 454.289 268.281, 451.678 283.324 C 450.740 288.726, 450.246 293.588, 450.579 294.128 C 451.354 295.381, 454.660 293.224, 463.167 285.915 C 466.833 282.765, 470.748 279.897, 471.865 279.543 C 472.983 279.188, 474.166 278.053, 474.493 277.022 C 474.821 275.990, 474.611 265.889, 474.028 254.576 C 472.052 216.271, 465.994 191.414, 451.099 160.500 C 439.932 137.322, 428.993 121.334, 412.582 104.202 C 380.565 70.780, 336.747 48.455, 289.545 41.514 C 276.706 39.626, 246.391 38.784, 233.449 39.956 M 269.500 74.579 C 267.507 77.025, 267.467 77.030, 258.500 75.897 C 245.172 74.213, 214.890 75.344, 203.500 77.952 C 170.007 85.620, 145.235 99.378, 121.500 123.494 C 95.398 150.014, 77.653 183.436, 71.944 216.828 C 69.564 230.748, 69.357 252.277, 71.505 262.500 C 73.907 273.930, 80.035 290.725, 86.280 302.991 C 92.751 315.702, 96.361 321, 98.551 321 C 100.695 321, 100.339 318.897, 97.001 311.840 C 93.432 304.297, 93.357 303.314, 96.117 300.375 L 98.234 298.122 95.640 287.811 C 91.796 272.530, 90.909 265.248, 90.909 248.950 C 90.909 216.670, 98.837 189.064, 115.459 163.463 C 137.805 129.046, 178.853 102.284, 219.717 95.489 C 233.146 93.256, 266.649 93.790, 274.656 96.364 C 285.591 99.880, 289.424 109.974, 283.125 118.669 C 281.543 120.852, 279.938 123.619, 279.557 124.819 C 278.618 127.778, 281.618 127.749, 286.693 124.750 C 289.882 122.865, 291.961 122.500, 299.500 122.500 C 310.943 122.500, 315.859 124.739, 325.202 134.208 C 328.888 137.944, 332.327 141, 332.845 141 C 335.398 141, 334.395 137.131, 329.197 126.929 L 323.500 115.746 323.507 106.623 C 323.515 96.679, 325.184 91.947, 330.403 87.076 C 334.350 83.391, 333.518 77, 329.090 77 C 328.260 77, 325.685 79.065, 323.368 81.588 C 318.288 87.122, 315.914 87.150, 314.562 81.690 C 313.705 78.231, 313.357 77.927, 310.562 78.201 C 307.719 78.479, 307.500 78.780, 307.500 82.409 C 307.500 84.559, 307.032 86.478, 306.459 86.673 C 305.887 86.868, 302.287 85.131, 298.459 82.814 C 289.562 77.428, 277.222 72.010, 274 72.075 C 272.601 72.103, 270.619 73.206, 269.500 74.579 M 119.886 96.862 C 104.995 104.226, 93.865 112.279, 83.442 123.232 C 59.580 148.306, 41.729 189.097, 35.842 232 C 33.889 246.234, 34.211 280.759, 36.434 295.500 C 43.068 339.486, 64.507 383.092, 94.124 412.838 C 117.450 436.267, 142.806 451.720, 176.111 462.807 C 191.605 467.964, 218.341 473.993, 219.698 472.635 C 221.590 470.743, 217.100 468.063, 203.394 462.903 C 160.056 446.585, 128.244 425.627, 104.311 397.624 C 92.389 383.674, 84.593 371.848, 76.541 355.500 C 67.318 336.772, 59.900 313.230, 59.633 301.835 C 59.522 297.118, 59.903 295.740, 61.912 293.598 C 64.113 291.251, 64.224 290.696, 63.175 287.263 C 62.428 284.817, 60.846 282.742, 58.655 281.334 C 54.338 278.560, 54 276.751, 54 256.409 C 54 215.503, 65.461 176.300, 86.900 143.871 C 98.464 126.380, 115.987 108.316, 131.081 98.328 C 133.236 96.901, 135 95.539, 135 95.301 C 135 94.260, 132.863 91.006, 132.215 91.059 C 131.822 91.092, 126.274 93.703, 119.886 96.862 M 348.164 122.671 C 347.415 124.009, 348.964 126.048, 355.946 132.921 C 370.169 146.920, 374.787 159.670, 377.460 192.322 C 379.199 213.576, 379.926 217.938, 384.733 236 C 387.891 247.863, 388.331 250.955, 388.357 261.500 C 388.380 270.584, 387.855 275.646, 386.194 282.329 C 383.582 292.841, 383.519 294, 385.565 294 C 386.548 294, 388.441 291.115, 390.653 286.250 C 392.590 281.988, 396.559 273.325, 399.473 267 C 405.986 252.865, 407.910 245.542, 408.673 232 C 410.771 194.731, 392.224 155.681, 358.724 126.835 C 351.588 120.690, 349.692 119.942, 348.164 122.671 M 222.500 126.073 C 205.951 128.044, 186.702 134.090, 175 140.991 C 161.589 148.901, 149.686 160.769, 144.064 171.838 C 139.588 180.650, 135.730 185.338, 127.036 192.531 C 122.616 196.188, 119 199.828, 119 200.621 C 119 203.103, 121.995 203.355, 126.330 201.239 C 128.623 200.120, 134.974 198.458, 140.443 197.547 C 150.914 195.803, 159.503 193.256, 167.025 189.662 C 172.116 187.230, 188.339 175.501, 203.211 163.500 C 208.663 159.100, 216.359 152.901, 220.312 149.724 C 230.613 141.446, 237.208 139.560, 253.360 140.277 C 267.997 140.927, 277.988 143.401, 290.500 149.475 C 311.232 159.538, 328.185 176.336, 339.283 197.812 C 348.997 216.610, 353 233.173, 353 254.575 C 353 266.660, 353.180 268.026, 354.895 268.944 C 357.831 270.515, 358.899 268.362, 361.663 255.297 C 364.931 239.856, 365.106 225.672, 362.164 214.737 C 352.376 178.356, 320.634 144.240, 285 131.802 C 269.219 126.293, 241.774 123.778, 222.500 126.073 M 227 160.090 C 214.982 161.637, 204.959 165.492, 193.838 172.844 C 181.154 181.229, 170.606 189.783, 166.118 195.324 C 161.426 201.118, 155.502 213.885, 152.812 224 C 149.506 236.434, 149.507 259.067, 152.815 270.500 C 161.078 299.060, 183.716 321.845, 212.537 330.612 C 220.539 333.046, 223.055 333.337, 236 333.329 C 247.733 333.321, 252.027 332.905, 258.500 331.149 C 283.959 324.244, 310.034 304.051, 320.029 283.500 C 330.705 261.548, 330.733 232.122, 320.101 209.401 C 303.689 174.330, 267.066 154.933, 227 160.090 M 410.688 163.646 C 409.533 164.800, 409.914 167.752, 411.702 171.501 C 413.812 175.927, 416.660 175.904, 416.178 171.464 C 415.589 166.037, 412.581 161.753, 410.688 163.646 M 415.203 185.429 C 413.390 186.711, 411.673 187.994, 411.388 188.279 C 411.102 188.565, 412.456 194.581, 414.397 201.649 C 420.757 224.814, 421.497 230.284, 421.481 254 C 421.468 272.358, 421.133 277.156, 419.187 286.834 C 412.745 318.867, 396.911 351.008, 376.967 372.535 C 372.585 377.265, 369.003 381.667, 369.007 382.318 C 369.010 382.968, 369.907 384.850, 371 386.500 C 373.977 390.995, 373.478 393.113, 368.250 398.171 C 353.031 412.895, 329.343 424.174, 304.500 428.526 C 279.468 432.911, 243.763 428.999, 234.486 420.853 C 231.186 417.956, 230.004 414.734, 231.828 413.606 C 232.283 413.325, 236.558 414.168, 241.326 415.480 C 269.219 423.154, 298.405 420.269, 324.500 407.259 C 346.443 396.318, 363.848 379.432, 372.514 360.675 C 377.966 348.876, 379.092 342.324, 378.775 324.235 C 378.515 309.360, 378.393 308.500, 376.537 308.500 C 374.436 308.500, 374.116 309.379, 372.012 320.949 C 368.546 340.008, 350.791 363.043, 327.500 378.698 C 305.875 393.233, 278.122 401.305, 249.500 401.387 C 222.983 401.462, 201.459 395.009, 179.239 380.320 C 166.489 371.891, 165.191 367.604, 173 359.713 C 175.750 356.934, 178 354.272, 178 353.799 C 178 351.896, 174.683 351.946, 164.829 353.997 C 157.697 355.482, 152.905 355.952, 149.347 355.514 C 142.740 354.701, 132.623 349.800, 122.536 342.524 C 116.504 338.174, 114.199 337.015, 113.036 337.747 C 110.088 339.603, 110.999 341.558, 118.278 349.003 C 126.724 357.642, 129.974 363.618, 130.724 371.896 C 131.456 379.971, 129.527 387.097, 124.966 393.168 C 118.581 401.666, 121.762 403.561, 131.246 396.908 C 134.512 394.617, 137.729 393.066, 138.555 393.383 C 141.004 394.322, 142.209 399.119, 141.600 405.500 C 140.388 418.209, 140.318 417.474, 142.771 417.822 C 145.456 418.203, 146.777 415.563, 149.933 403.515 C 151.061 399.207, 152.115 395.551, 152.275 395.392 C 152.435 395.232, 158.401 400.825, 165.533 407.821 C 190.093 431.914, 219.425 447.439, 255 455.175 C 264.264 457.190, 268.267 457.459, 289 457.461 C 310.767 457.464, 313.426 457.265, 325.058 454.765 C 371.898 444.698, 408.791 420.316, 437.646 380.357 C 445.833 369.019, 457.823 344.896, 462.924 329.500 C 467.293 316.310, 470.621 301.062, 469.671 298.585 C 468.861 296.473, 464.068 296.581, 461.380 298.772 C 458.531 301.094, 453.198 310.986, 447.070 325.319 C 429.998 365.249, 410.515 390.789, 383.166 409.092 C 375.772 414.040, 372.404 415.004, 370.200 412.800 C 367.145 409.745, 368.969 407.143, 386.317 389.806 C 399.428 376.702, 405.385 369.896, 410.848 361.778 C 423.125 343.533, 432.568 322.718, 437.630 302.744 C 439.833 294.050, 440.303 289.582, 440.732 273.216 C 441.306 251.349, 440.256 240.257, 436.021 223.445 C 432.999 211.451, 423.747 186.889, 421.345 184.488 C 419.445 182.588, 419.160 182.631, 415.203 185.429 M 225 191.591 C 199.484 198.364, 181.021 221.421, 181.032 246.500 C 181.043 272.383, 197.524 294.076, 222.500 301.083 C 229.429 303.027, 244.997 302.813, 253 300.664 C 280.034 293.406, 296.026 273.086, 295.988 246.040 C 295.966 230.118, 290.800 217.678, 279.580 206.526 C 267.850 194.868, 255.816 189.943, 239.356 190.066 C 234.485 190.102, 228.025 190.789, 225 191.591 M 124.823 214.706 C 120.908 219.190, 118 233.780, 118 248.939 C 118 278.008, 127.319 301.798, 148.296 326.279 C 162.401 342.740, 189.049 357.730, 216.500 364.645 C 228.863 367.760, 251.327 368.901, 264.133 367.065 C 290.302 363.313, 310.683 353.918, 326.625 338.258 C 333.626 331.381, 339.092 323.829, 347.441 309.500 C 350.005 305.100, 354.958 298.215, 358.448 294.200 C 365.403 286.197, 366.441 283.986, 364.493 281.321 C 363.293 279.681, 362.765 279.889, 357.349 284.135 C 349.919 289.960, 346.216 291.810, 331.796 296.903 C 314.717 302.935, 304.402 307.550, 297.554 312.223 C 285.187 320.663, 273.213 329.912, 263.271 338.705 C 250.557 349.950, 247.929 351.252, 236.839 351.805 C 204.733 353.404, 167.463 333.171, 147.859 303.500 C 133.573 281.879, 128.170 262.318, 129.422 236.747 C 130.657 211.510, 130.741 213.534, 128.445 213.206 C 127.314 213.044, 125.685 213.719, 124.823 214.706" fill="white" fill-rule="evenodd"/>
</svg>