<?xml version="1.0" standalone="no"?>
<!DOCTYPE svg PUBLIC "-//W3C//DTD SVG 20010904//EN"
 "http://www.w3.org/TR/2001/REC-SVG-20010904/DTD/svg10.dtd">
<svg version="1.0" xmlns="http://www.w3.org/2000/svg"
 width="700.000000pt" height="700.000000pt" viewBox="0 0 700.000000 700.000000"
 preserveAspectRatio="xMidYMid meet">
<metadata>
Created by potrace 1.14, written by Peter Selinger 2001-2017
</metadata>
<g transform="translate(0.000000,700.000000) scale(0.100000,-0.100000)"
fill="#000000" stroke="none">
<path d="M3140 6450 c-30 -4 -77 -11 -105 -15 -227 -32 -527 -116 -784 -221
-128 -52 -438 -202 -471 -227 -8 -7 -31 -21 -50 -31 -58 -32 -234 -145 -286
-185 -54 -41 -71 -81 -33 -81 12 0 92 33 178 74 248 118 296 126 364 58 l38
-39 172 86 c95 47 219 103 277 124 105 39 319 103 375 113 17 2 37 7 45 9 8 2
31 7 50 10 19 3 60 10 90 15 280 46 633 46 975 0 39 -5 90 -12 115 -15 120
-17 373 -75 412 -96 10 -5 18 -7 18 -3 0 3 6 2 13 -3 6 -6 30 -16 52 -23 22
-7 96 -40 165 -74 481 -240 864 -612 1114 -1079 97 -183 219 -500 251 -656 2
-9 9 -38 15 -66 23 -99 49 -254 57 -336 15 -161 7 -628 -12 -658 -2 -4 -7 -42
-11 -85 -6 -72 -5 -76 12 -70 21 8 81 52 194 143 41 34 80 61 87 61 30 0 35
41 28 219 -3 97 -8 192 -10 211 -1 19 -6 71 -10 115 -3 44 -8 93 -10 110 -7
56 -17 130 -21 150 -2 11 -9 47 -15 80 -68 384 -285 878 -538 1225 -30 41 -57
77 -60 80 -3 3 -24 28 -46 55 -70 88 -267 284 -365 363 -52 43 -104 85 -114
95 -11 9 -22 17 -26 17 -3 0 -32 20 -65 45 -33 25 -65 45 -71 45 -6 0 -17 6
-23 14 -7 8 -36 27 -64 41 -29 15 -57 32 -64 37 -52 41 -354 175 -524 231
-103 35 -317 90 -389 101 -19 3 -44 7 -55 10 -11 2 -48 7 -82 11 -35 4 -75 9
-90 11 -51 9 -647 12 -703 4z"/>
<path d="M3714 6001 c-16 -10 -35 -25 -42 -33 -10 -13 -27 -15 -80 -12 -37 3
-78 7 -92 9 -29 6 -382 6 -454 1 -193 -15 -263 -27 -416 -71 -439 -127 -798
-367 -1114 -745 -318 -380 -515 -837 -551 -1275 -8 -94 -8 -309 -1 -365 4 -25
9 -63 12 -85 16 -119 110 -379 205 -568 93 -185 158 -271 179 -236 8 12 -7 57
-49 149 -27 60 -26 91 4 124 14 15 25 30 25 33 0 4 -15 70 -34 147 -48 196
-59 285 -60 486 0 155 9 343 18 359 2 3 7 31 10 61 12 105 69 309 124 445 30
73 129 261 178 336 107 163 276 347 439 478 317 254 736 435 1080 466 78 7
448 7 510 0 145 -16 196 -32 246 -77 75 -67 78 -154 10 -267 -64 -104 -49
-119 65 -65 53 25 70 28 159 27 126 0 196 -20 267 -74 29 -23 58 -47 63 -53 6
-6 38 -38 73 -70 48 -46 65 -57 74 -48 16 16 3 51 -78 217 l-63 130 3 110 c4
141 16 181 76 256 57 72 66 117 28 143 -12 9 -25 16 -29 16 -4 0 -37 -27 -73
-60 -37 -33 -75 -60 -85 -60 -13 0 -25 16 -39 50 -19 44 -24 50 -51 50 -34 0
-45 -13 -48 -55 0 -16 -2 -36 -2 -42 -2 -23 -35 -13 -116 33 -100 58 -231 119
-294 138 -44 13 -51 13 -77 -3z"/>
<path d="M1627 5667 c-87 -45 -199 -111 -249 -147 -91 -64 -249 -212 -322
-300 -60 -73 -189 -269 -230 -350 -22 -41 -42 -79 -46 -85 -4 -5 -30 -62 -57
-125 -100 -230 -177 -491 -218 -735 -3 -16 -7 -43 -10 -60 -13 -73 -19 -216
-19 -425 0 -201 9 -434 18 -449 2 -3 7 -32 10 -64 4 -32 9 -64 11 -70 3 -7 6
-23 9 -37 22 -128 106 -408 161 -535 79 -185 142 -309 227 -445 79 -127 81
-131 95 -149 6 -9 28 -38 49 -66 136 -184 338 -385 544 -542 265 -201 676
-390 1045 -479 177 -42 226 -52 328 -67 33 -5 44 8 25 30 -15 19 -124 71 -235
112 -216 80 -467 201 -653 313 -100 61 -295 196 -332 231 -8 7 -43 37 -78 67
-83 70 -177 165 -260 260 -36 41 -67 77 -70 80 -44 41 -211 294 -277 420 -150
284 -286 691 -277 835 1 17 2 39 3 50 0 11 12 33 26 49 14 16 25 40 25 54 0
34 -36 94 -71 117 -51 35 -57 67 -57 315 0 124 4 259 9 300 12 108 19 163 24
180 2 8 6 33 10 55 10 73 16 99 36 180 118 478 355 905 680 1225 117 115 262
235 327 269 21 11 21 13 7 41 -9 17 -23 30 -33 30 -9 0 -88 -37 -175 -83z"/>
<path d="M4767 5333 c-18 -17 0 -46 83 -133 147 -154 212 -266 254 -435 16
-64 19 -80 35 -195 9 -67 13 -107 27 -260 3 -41 8 -84 20 -195 7 -67 24 -142
72 -330 l46 -180 0 -185 c0 -157 -4 -200 -23 -280 -31 -130 -34 -147 -21 -155
26 -16 39 8 195 350 102 223 126 325 130 540 3 123 -1 186 -16 270 -68 395
-289 779 -624 1084 -107 97 -157 126 -178 104z"/>
<path d="M3128 5286 c-1 -2 -32 -6 -68 -9 -61 -6 -87 -10 -150 -22 -14 -3 -35
-7 -47 -9 -104 -20 -333 -100 -422 -148 -219 -118 -371 -269 -505 -502 -47
-83 -91 -131 -254 -279 -62 -57 -66 -83 -12 -81 19 1 60 11 90 22 30 11 120
34 200 50 204 42 303 81 435 170 92 62 355 260 429 323 42 35 103 85 136 109
18 14 47 37 64 53 17 15 67 45 111 67 84 42 146 54 275 53 226 -2 379 -38 582
-139 328 -163 585 -459 733 -844 68 -176 94 -322 100 -579 3 -109 9 -179 16
-187 17 -21 44 -17 57 9 17 32 59 215 69 295 9 83 10 282 1 342 -39 257 -232
600 -463 826 -232 225 -520 389 -762 434 -32 5 -69 12 -83 15 -14 3 -52 8 -85
11 -33 3 -69 8 -79 11 -20 6 -362 14 -368 9z"/>
<path d="M3237 4824 c-1 -1 -36 -5 -77 -8 -121 -11 -157 -18 -244 -47 -219
-74 -567 -322 -672 -480 -69 -104 -150 -302 -169 -414 -18 -110 -23 -297 -11
-428 11 -112 39 -207 101 -333 151 -310 422 -538 760 -640 85 -25 101 -27 300
-27 167 0 223 3 275 17 257 68 485 200 676 393 208 208 307 457 308 768 0 331
-118 622 -347 850 -199 198 -461 318 -738 340 -112 9 -159 12 -162 9z m209
-439 c176 -36 328 -136 450 -295 61 -80 86 -126 113 -210 28 -85 36 -144 34
-265 -2 -229 -100 -435 -271 -571 -102 -81 -268 -152 -402 -170 -72 -11 -242
-7 -306 6 -70 14 -181 64 -257 114 -200 133 -332 385 -330 631 1 79 14 171 30
215 3 8 7 21 9 28 13 62 120 232 188 297 119 116 283 202 424 224 90 14 238
12 318 -4z"/>
<path d="M5611 4753 c-19 -36 40 -156 68 -139 31 19 -13 156 -50 156 -5 0 -13
-8 -18 -17z"/>
<path d="M5690 4472 c-74 -47 -73 -38 -24 -227 45 -174 72 -297 79 -350 22
-179 22 -636 0 -745 -3 -14 -8 -38 -11 -55 -17 -96 -72 -288 -116 -405 -114
-306 -266 -560 -482 -803 -99 -113 -101 -118 -64 -170 13 -19 21 -44 21 -66
-1 -31 -11 -46 -75 -106 -224 -215 -633 -391 -978 -420 -142 -12 -378 -7 -482
10 -13 2 -41 6 -63 10 -60 8 -174 41 -226 64 -72 32 -134 115 -101 135 4 2 53
-6 107 -19 55 -14 118 -27 140 -31 22 -3 42 -7 46 -10 27 -17 320 -24 441 -11
497 54 980 372 1181 778 77 156 90 218 92 469 2 219 -2 260 -30 260 -21 0 -31
-27 -54 -142 -43 -208 -150 -393 -337 -583 -253 -257 -569 -426 -934 -499
-160 -32 -242 -40 -415 -40 -159 -1 -238 6 -345 29 -41 9 -83 18 -94 20 -206
44 -601 259 -651 355 -29 57 -16 94 69 184 66 69 62 80 -21 72 -38 -3 -97 -13
-133 -20 -36 -8 -105 -14 -155 -13 -85 2 -96 5 -185 48 -52 25 -146 80 -209
122 -91 60 -118 74 -132 66 -10 -5 -20 -13 -23 -17 -9 -15 22 -62 78 -120 147
-153 186 -237 181 -388 -2 -85 -20 -141 -67 -212 -61 -92 -68 -122 -30 -122 9
0 55 22 102 50 105 62 113 62 137 9 10 -22 9 -144 -1 -236 -5 -43 6 -57 38
-49 31 8 44 35 81 173 15 54 30 104 35 112 7 14 32 -7 225 -194 256 -247 622
-453 991 -560 245 -70 317 -78 689 -78 243 0 324 5 419 27 35 9 75 17 89 20
130 23 392 117 557 200 385 191 742 510 972 866 169 262 338 666 384 915 27
150 22 168 -44 160 -68 -8 -106 -66 -247 -377 -143 -318 -238 -487 -382 -681
-139 -187 -399 -423 -559 -508 -66 -34 -87 -36 -114 -9 -37 37 -9 77 245 335
205 208 275 293 376 460 109 180 199 375 263 572 68 213 81 322 80 673 -1 190
-5 249 -30 400 -29 181 -184 623 -238 678 l-22 22 -44 -28z"/>
<path d="M1734 4080 c-12 -5 -29 -19 -38 -32 -21 -29 -54 -134 -62 -196 -3
-26 -9 -72 -13 -102 -8 -61 -7 -289 2 -335 3 -16 9 -55 12 -85 4 -30 9 -58 11
-61 2 -3 6 -20 9 -38 9 -51 53 -180 86 -249 16 -35 29 -65 29 -67 0 -8 90
-155 126 -206 181 -257 350 -396 659 -545 172 -83 382 -153 510 -170 16 -2 57
-7 90 -11 33 -5 148 -8 255 -7 171 0 210 4 321 27 425 90 729 295 938 634 120
194 199 308 249 361 28 30 61 79 71 104 8 21 7 31 -7 48 l-17 21 -35 -25
c-168 -120 -182 -127 -415 -213 -186 -68 -325 -128 -390 -167 -55 -33 -275
-189 -315 -223 -14 -12 -55 -45 -91 -75 -37 -29 -111 -91 -165 -137 -141 -120
-177 -134 -339 -137 -206 -5 -394 40 -598 142 -224 111 -463 316 -590 506
-186 280 -261 530 -257 853 5 354 5 388 -5 391 -5 1 -20 -1 -31 -6z"/>
</g>
</svg>
